<?xml version="1.0" encoding="utf-8"?>
<svg id="master-artboard" viewBox="0 0 1400 1400" version="1.1" xmlns="http://www.w3.org/2000/svg" x="0px" y="0px" width="1400px" height="1400px" enable-background="new 0 0 1400 1400"><rect id="ee-background" x="0" y="0" width="1400" height="1400" style="fill: white; fill-opacity: 0; pointer-events: none;"/>
<path d="M 0 0 H 1400 V 1400 H 0 V 0 Z" id="XMLID_125_" fill-rule="evenodd" clip-rule="evenodd" fill="#C2DBF4" transform="matrix(1, 0, 0, 1, -2.842170943040401e-14, 0)"/><path id="XMLID_124_" fill-rule="evenodd" clip-rule="evenodd" fill="#A1BDEF" d="M181.4,1279.9h1042.1V699.3&#10;&#9;&#9;c0-282.2-230.9-513.1-513.1-513.1h-15.9c-282.2,0-513.1,230.9-513.1,513.1V1279.9z" transform="matrix(1, 0, 0, 1, -2.842170943040401e-14, 0)" style="fill-opacity: 0;"/><path id="XMLID_123_" fill-rule="evenodd" clip-rule="evenodd" fill="#8CAEEB" d="M197.4,1279.9l123-132.7h168.7&#10;&#9;&#9;c22.7,0,38.5-48.9,63.9-48.9h280.4c30.2,0,44.2,48.9,71.5,48.9h179.7l123,134.4h-47.1l-915.9-1.6H197.4z" transform="matrix(1, 0, 0, 1, -2.842170943040401e-14, 0)"/><path d="M 592.900024 219.899994 H 820.200027 V 247.999994 H 592.900024 V 219.899994 Z" id="XMLID_122_" fill-rule="evenodd" clip-rule="evenodd" fill="#4A4587" transform="matrix(1, 0, 0, 1, -2.842170943040401e-14, 0)"/><path d="M 592.900024 261.5 H 820.200027 V 394.100006 H 592.900024 V 261.5 Z" id="XMLID_121_" fill-rule="evenodd" clip-rule="evenodd" fill="#FFF3F1" transform="matrix(1, 0, 0, 1, -2.842170943040401e-14, 0)"/><path d="M 607.799988 306.5 H 655.099987 V 379.099998 H 607.799988 V 306.5 Z" id="XMLID_120_" fill-rule="evenodd" clip-rule="evenodd" fill="#DBDCDC" transform="matrix(1, 0, 0, 1, -2.842170943040401e-14, 0)"/><path d="M 607.799988 287.399994 H 682.199989 V 297.099994 H 607.799988 V 287.399994 Z" id="XMLID_119_" fill-rule="evenodd" clip-rule="evenodd" fill="#DBDCDC" transform="matrix(1, 0, 0, 1, -2.842170943040401e-14, 0)"/><path d="M 607.799988 270.299988 H 682.199989 V 279.999988 H 607.799988 V 270.299988 Z" id="XMLID_118_" fill-rule="evenodd" clip-rule="evenodd" fill="#FF6239" transform="matrix(1, 0, 0, 1, -2.842170943040401e-14, 0)"/><path d="M 666.900024 306.5 H 721.100025 V 316.2 H 666.900024 V 306.5 Z" id="XMLID_117_" fill-rule="evenodd" clip-rule="evenodd" fill="#DBDCDC" transform="matrix(1, 0, 0, 1, -2.842170943040401e-14, 0)"/><path d="M 666.900024 322.200012 H 721.100025 V 331.900012 H 666.900024 V 322.200012 Z" id="XMLID_116_" fill-rule="evenodd" clip-rule="evenodd" fill="#DBDCDC" transform="matrix(1, 0, 0, 1, -2.842170943040401e-14, 0)"/><path d="M 666.900024 337.899994 H 721.100025 V 347.599994 H 666.900024 V 337.899994 Z" id="XMLID_115_" fill-rule="evenodd" clip-rule="evenodd" fill="#DBDCDC" transform="matrix(1, 0, 0, 1, -2.842170943040401e-14, 0)"/><path d="M 666.900024 353.600006 H 721.100025 V 363.300006 H 666.900024 V 353.600006 Z" id="XMLID_114_" fill-rule="evenodd" clip-rule="evenodd" fill="#DBDCDC" transform="matrix(1, 0, 0, 1, -2.842170943040401e-14, 0)"/><path d="M 666.900024 369.399994 H 721.100025 V 379.099994 H 666.900024 V 369.399994 Z" id="XMLID_113_" fill-rule="evenodd" clip-rule="evenodd" fill="#DBDCDC" transform="matrix(1, 0, 0, 1, -2.842170943040401e-14, 0)"/><path d="M 761.099976 271.399994 H 808.399975 V 343.999992 H 761.099976 V 271.399994 Z" id="XMLID_112_" fill-rule="evenodd" clip-rule="evenodd" fill="#B7DCEC" transform="matrix(1, 0, 0, 1, -2.842170943040401e-14, 0)"/><path d="M 742.299988 271.399994 H 746.799988 V 379.099991 H 742.299988 V 271.399994 Z" id="XMLID_111_" fill-rule="evenodd" clip-rule="evenodd" fill="#DBDCDC" transform="matrix(1, 0, 0, 1, -2.842170943040401e-14, 0)"/><path id="XMLID_110_" fill-rule="evenodd" clip-rule="evenodd" fill="#FFF3F1" d="M760.4,227.1c3.8,0,7,3.1,7,7s-3.1,7-7,7&#10;&#9;&#9;c-3.8,0-7-3.1-7-7S756.5,227.1,760.4,227.1" transform="matrix(1, 0, 0, 1, -2.842170943040401e-14, 0)"/><path id="XMLID_109_" fill-rule="evenodd" clip-rule="evenodd" fill="#FFF3F1" d="M781.2,227.1c3.8,0,7,3.1,7,7s-3.1,7-7,7&#10;&#9;&#9;c-3.8,0-7-3.1-7-7S777.4,227.1,781.2,227.1" transform="matrix(1, 0, 0, 1, -2.842170943040401e-14, 0)"/><path id="XMLID_108_" fill-rule="evenodd" clip-rule="evenodd" fill="#FF6239" d="M802.1,227.1c3.8,0,6.9,3.1,6.9,7s-3.1,7-6.9,7&#10;&#9;&#9;c-3.8,0-7-3.1-7-7S798.2,227.1,802.1,227.1" transform="matrix(1, 0, 0, 1, -2.842170943040401e-14, 0)"/><path d="M 911.099976 372.899994 H 1138.399979 V 400.999994 H 911.099976 V 372.899994 Z" id="XMLID_107_" fill-rule="evenodd" clip-rule="evenodd" fill="#4A4587" transform="matrix(1, 0, 0, 1, -2.842170943040401e-14, 0)"/><path d="M 911.099976 414.5 H 1138.399979 V 547.100006 H 911.099976 V 414.5 Z" id="XMLID_106_" fill-rule="evenodd" clip-rule="evenodd" fill="#FFF3F1" transform="matrix(1, 0, 0, 1, -2.842170943040401e-14, 0)"/><path d="M 926.099976 459.5 H 973.399975 V 532.099998 H 926.099976 V 459.5 Z" id="XMLID_105_" fill-rule="evenodd" clip-rule="evenodd" fill="#FF6239" transform="matrix(1, 0, 0, 1, -2.842170943040401e-14, 0)"/><path d="M 926.099976 440.399994 H 1000.499977 V 450.099994 H 926.099976 V 440.399994 Z" id="XMLID_104_" fill-rule="evenodd" clip-rule="evenodd" fill="#DBDCDC" transform="matrix(1, 0, 0, 1, -2.842170943040401e-14, 0)"/><path d="M 926.099976 423.299988 H 1000.499977 V 432.999988 H 926.099976 V 423.299988 Z" id="XMLID_103_" fill-rule="evenodd" clip-rule="evenodd" fill="#DBDCDC" transform="matrix(1, 0, 0, 1, -2.842170943040401e-14, 0)"/><path d="M 985.099976 459.5 H 1039.299976 V 469.2 H 985.099976 V 459.5 Z" id="XMLID_102_" fill-rule="evenodd" clip-rule="evenodd" fill="#DBDCDC" transform="matrix(1, 0, 0, 1, -2.842170943040401e-14, 0)"/><path d="M 985.099976 475.200012 H 1039.299976 V 484.900012 H 985.099976 V 475.200012 Z" id="XMLID_101_" fill-rule="evenodd" clip-rule="evenodd" fill="#DBDCDC" transform="matrix(1, 0, 0, 1, -2.842170943040401e-14, 0)"/><path d="M 985.099976 490.899994 H 1039.299976 V 500.599994 H 985.099976 V 490.899994 Z" id="XMLID_100_" fill-rule="evenodd" clip-rule="evenodd" fill="#DBDCDC" transform="matrix(1, 0, 0, 1, -2.842170943040401e-14, 0)"/><path d="M 985.099976 506.600006 H 1039.299976 V 516.300006 H 985.099976 V 506.600006 Z" id="XMLID_99_" fill-rule="evenodd" clip-rule="evenodd" fill="#DBDCDC" transform="matrix(1, 0, 0, 1, -2.842170943040401e-14, 0)"/><path d="M 985.099976 522.400024 H 1039.299976 V 532.100024 H 985.099976 V 522.400024 Z" id="XMLID_98_" fill-rule="evenodd" clip-rule="evenodd" fill="#DBDCDC" transform="matrix(1, 0, 0, 1, -2.842170943040401e-14, 0)"/><path d="M 1079.300049 424.399994 H 1126.600048 V 496.999992 H 1079.300049 V 424.399994 Z" id="XMLID_97_" fill-rule="evenodd" clip-rule="evenodd" fill="#B7DCEC" transform="matrix(1, 0, 0, 1, -2.842170943040401e-14, 0)"/><path d="M 1060.5 424.399994 H 1065 V 532.099991 H 1060.5 V 424.399994 Z" id="XMLID_96_" fill-rule="evenodd" clip-rule="evenodd" fill="#DBDCDC" transform="matrix(1, 0, 0, 1, -2.842170943040401e-14, 0)"/><path id="XMLID_95_" fill-rule="evenodd" clip-rule="evenodd" fill="#FFF3F1" d="M1078.6,380.1c3.8,0,7,3.1,7,7s-3.1,7-7,7&#10;&#9;&#9;s-7-3.1-7-7S1074.8,380.1,1078.6,380.1" transform="matrix(1, 0, 0, 1, -2.842170943040401e-14, 0)"/><path id="XMLID_94_" fill-rule="evenodd" clip-rule="evenodd" fill="#FFF3F1" d="M1099.5,380.1c3.8,0,7,3.1,7,7s-3.1,7-7,7&#10;&#9;&#9;s-7-3.1-7-7S1095.6,380.1,1099.5,380.1" transform="matrix(1, 0, 0, 1, -2.842170943040401e-14, 0)"/><path id="XMLID_93_" fill-rule="evenodd" clip-rule="evenodd" fill="#FF6239" d="M1120.3,380.1c3.8,0,6.9,3.1,6.9,7s-3.1,7-6.9,7&#10;&#9;&#9;c-3.8,0-7-3.1-7-7S1116.5,380.1,1120.3,380.1" transform="matrix(1, 0, 0, 1, -2.842170943040401e-14, 0)"/><path d="M 289.200012 378.899994 H 516.500015 V 406.999994 H 289.200012 V 378.899994 Z" id="XMLID_92_" fill-rule="evenodd" clip-rule="evenodd" fill="#4A4587" transform="matrix(1, 0, 0, 1, -2.842170943040401e-14, 0)"/><path d="M 289.200012 420.5 H 516.500015 V 553.100006 H 289.200012 V 420.5 Z" id="XMLID_91_" fill-rule="evenodd" clip-rule="evenodd" fill="#FFF3F1" transform="matrix(1, 0, 0, 1, -2.842170943040401e-14, 0)"/><path d="M 304.100006 465.5 H 351.400005 V 538.099998 H 304.100006 V 465.5 Z" id="XMLID_90_" fill-rule="evenodd" clip-rule="evenodd" fill="#FF6239" transform="matrix(1, 0, 0, 1, -2.842170943040401e-14, 0)"/><path d="M 304.100006 446.399994 H 378.500008 V 456.099994 H 304.100006 V 446.399994 Z" id="XMLID_89_" fill-rule="evenodd" clip-rule="evenodd" fill="#DBDCDC" transform="matrix(1, 0, 0, 1, -2.842170943040401e-14, 0)"/><path d="M 304.100006 429.299988 H 378.500008 V 438.999988 H 304.100006 V 429.299988 Z" id="XMLID_88_" fill-rule="evenodd" clip-rule="evenodd" fill="#DBDCDC" transform="matrix(1, 0, 0, 1, -2.842170943040401e-14, 0)"/><path d="M 363.200012 465.5 H 417.400013 V 475.2 H 363.200012 V 465.5 Z" id="XMLID_87_" fill-rule="evenodd" clip-rule="evenodd" fill="#DBDCDC" transform="matrix(1, 0, 0, 1, -2.842170943040401e-14, 0)"/><path d="M 363.200012 481.200012 H 417.400013 V 490.900012 H 363.200012 V 481.200012 Z" id="XMLID_86_" fill-rule="evenodd" clip-rule="evenodd" fill="#DBDCDC" transform="matrix(1, 0, 0, 1, -2.842170943040401e-14, 0)"/><path d="M 363.200012 496.899994 H 417.400013 V 506.599994 H 363.200012 V 496.899994 Z" id="XMLID_85_" fill-rule="evenodd" clip-rule="evenodd" fill="#DBDCDC" transform="matrix(1, 0, 0, 1, -2.842170943040401e-14, 0)"/><path d="M 363.200012 512.599976 H 417.400013 V 522.299975 H 363.200012 V 512.599976 Z" id="XMLID_84_" fill-rule="evenodd" clip-rule="evenodd" fill="#DBDCDC" transform="matrix(1, 0, 0, 1, -2.842170943040401e-14, 0)"/><path d="M 363.200012 528.400024 H 417.400013 V 538.100024 H 363.200012 V 528.400024 Z" id="XMLID_83_" fill-rule="evenodd" clip-rule="evenodd" fill="#DBDCDC" transform="matrix(1, 0, 0, 1, -2.842170943040401e-14, 0)"/><path d="M 457.399994 430.399994 H 504.699993 V 502.999992 H 457.399994 V 430.399994 Z" id="XMLID_82_" fill-rule="evenodd" clip-rule="evenodd" fill="#B7DCEC" transform="matrix(1, 0, 0, 1, -2.842170943040401e-14, 0)"/><path d="M 438.600006 430.399994 H 443.100006 V 538.099991 H 438.600006 V 430.399994 Z" id="XMLID_81_" fill-rule="evenodd" clip-rule="evenodd" fill="#DBDCDC" transform="matrix(1, 0, 0, 1, -2.842170943040401e-14, 0)"/><path id="XMLID_80_" fill-rule="evenodd" clip-rule="evenodd" fill="#FFF3F1" d="M456.7,386.1c3.8,0,7,3.1,7,7c0,3.8-3.1,6.9-7,6.9&#10;&#9;&#9;c-3.8,0-6.9-3.1-6.9-6.9C449.7,389.2,452.9,386.1,456.7,386.1" transform="matrix(1, 0, 0, 1, -2.842170943040401e-14, 0)"/><path id="XMLID_79_" fill-rule="evenodd" clip-rule="evenodd" fill="#FFF3F1" d="M477.5,386.1c3.8,0,7,3.1,7,7c0,3.8-3.1,6.9-7,6.9&#10;&#9;&#9;c-3.8,0-7-3.1-7-6.9C470.6,389.2,473.7,386.1,477.5,386.1" transform="matrix(1, 0, 0, 1, -2.842170943040401e-14, 0)"/><path id="XMLID_78_" fill-rule="evenodd" clip-rule="evenodd" fill="#FF6239" d="M498.4,386.1c3.8,0,7,3.1,7,7c0,3.8-3.1,6.9-7,6.9&#10;&#9;&#9;c-3.8,0-7-3.1-7-6.9C491.4,389.2,494.6,386.1,498.4,386.1" transform="matrix(1, 0, 0, 1, -2.842170943040401e-14, 0)"/><path d="M 213 189 H 324 V 212.4 H 213 V 189 Z" id="XMLID_77_" fill-rule="evenodd" clip-rule="evenodd" fill="#4A4587" transform="matrix(1, 0, 0, 1, -2.842170943040401e-14, 0)"/><path d="M 213 223.600006 H 324 V 334.000008 H 213 V 223.600006 Z" id="XMLID_76_" fill-rule="evenodd" clip-rule="evenodd" fill="#FFF3F1" transform="matrix(1, 0, 0, 1, -2.842170943040401e-14, 0)"/><path d="M 221.5 261.100006 H 260.900002 V 321.600006 H 221.5 V 261.100006 Z" id="XMLID_75_" fill-rule="evenodd" clip-rule="evenodd" fill="#B7DCEC" transform="matrix(1, 0, 0, 1, -2.842170943040401e-14, 0)"/><path d="M 221.5 245.199997 H 283.400002 V 253.299997 H 221.5 V 245.199997 Z" id="XMLID_74_" fill-rule="evenodd" clip-rule="evenodd" fill="#DBDCDC" transform="matrix(1, 0, 0, 1, -2.842170943040401e-14, 0)"/><path d="M 221.5 231 H 283.400002 V 239.1 H 221.5 V 231 Z" id="XMLID_73_" fill-rule="evenodd" clip-rule="evenodd" fill="#DBDCDC" transform="matrix(1, 0, 0, 1, -2.842170943040401e-14, 0)"/><path d="M 270.700012 261.100006 H 315.900013 V 269.200006 H 270.700012 V 261.100006 Z" id="XMLID_72_" fill-rule="evenodd" clip-rule="evenodd" fill="#FF6239" transform="matrix(1, 0, 0, 1, -2.842170943040401e-14, 0)"/><path d="M 270.700012 274.200012 H 315.900013 V 282.300013 H 270.700012 V 274.200012 Z" id="XMLID_71_" fill-rule="evenodd" clip-rule="evenodd" fill="#DBDCDC" transform="matrix(1, 0, 0, 1, -2.842170943040401e-14, 0)"/><path d="M 270.700012 287.299988 H 315.900013 V 295.399988 H 270.700012 V 287.299988 Z" id="XMLID_70_" fill-rule="evenodd" clip-rule="evenodd" fill="#DBDCDC" transform="matrix(1, 0, 0, 1, -2.842170943040401e-14, 0)"/><path d="M 270.700012 300.399994 H 315.900013 V 308.499994 H 270.700012 V 300.399994 Z" id="XMLID_69_" fill-rule="evenodd" clip-rule="evenodd" fill="#DBDCDC" transform="matrix(1, 0, 0, 1, -2.842170943040401e-14, 0)"/><path d="M 270.700012 313.5 H 315.900013 V 321.6 H 270.700012 V 313.5 Z" id="XMLID_68_" fill-rule="evenodd" clip-rule="evenodd" fill="#DBDCDC" transform="matrix(1, 0, 0, 1, -2.842170943040401e-14, 0)"/><path id="XMLID_67_" fill-rule="evenodd" clip-rule="evenodd" fill="#FFF3F1" d="M282.7,196.2c2.5,0,4.6,2,4.6,4.6&#10;&#9;&#9;c0,2.5-2,4.6-4.6,4.6s-4.6-2-4.6-4.6C278.1,198.2,280.1,196.2,282.7,196.2" transform="matrix(1, 0, 0, 1, -2.842170943040401e-14, 0)"/><path id="XMLID_66_" fill-rule="evenodd" clip-rule="evenodd" fill="#FFF3F1" d="M296.4,196.2c2.5,0,4.6,2,4.6,4.6&#10;&#9;&#9;c0,2.5-2,4.6-4.6,4.6c-2.5,0-4.6-2-4.6-4.6C291.8,198.2,293.8,196.2,296.4,196.2" transform="matrix(1, 0, 0, 1, -2.842170943040401e-14, 0)"/><path id="XMLID_65_" fill-rule="evenodd" clip-rule="evenodd" fill="#FF6239" d="M310.1,196.2c2.5,0,4.6,2,4.6,4.6&#10;&#9;&#9;c0,2.5-2,4.6-4.6,4.6c-2.5,0-4.6-2-4.6-4.6C305.5,198.2,307.6,196.2,310.1,196.2" transform="matrix(1, 0, 0, 1, -2.842170943040401e-14, 0)"/><path d="M 1135.199951 177.899994 H 1246.199951 V 201.299994 H 1135.199951 V 177.899994 Z" id="XMLID_64_" fill-rule="evenodd" clip-rule="evenodd" fill="#4A4587" transform="matrix(1, 0, 0, 1, -2.842170943040401e-14, 0)"/><path d="M 1135.199951 212.5 H 1246.199951 V 322.900002 H 1135.199951 V 212.5 Z" id="XMLID_63_" fill-rule="evenodd" clip-rule="evenodd" fill="#FFF3F1" transform="matrix(1, 0, 0, 1, -2.842170943040401e-14, 0)"/><path d="M 1143.699951 250 H 1183.099953 V 310.5 H 1143.699951 V 250 Z" id="XMLID_62_" fill-rule="evenodd" clip-rule="evenodd" fill="#B7DCEC" transform="matrix(1, 0, 0, 1, -2.842170943040401e-14, 0)"/><path d="M 1143.699951 234.100006 H 1205.599953 V 242.200006 H 1143.699951 V 234.100006 Z" id="XMLID_61_" fill-rule="evenodd" clip-rule="evenodd" fill="#DBDCDC" transform="matrix(1, 0, 0, 1, -2.842170943040401e-14, 0)"/><path d="M 1143.699951 219.899994 H 1205.599953 V 227.999994 H 1143.699951 V 219.899994 Z" id="XMLID_60_" fill-rule="evenodd" clip-rule="evenodd" fill="#DBDCDC" transform="matrix(1, 0, 0, 1, -2.842170943040401e-14, 0)"/><path d="M 1192.900024 250 H 1238.100025 V 258.1 H 1192.900024 V 250 Z" id="XMLID_59_" fill-rule="evenodd" clip-rule="evenodd" fill="#FF6239" transform="matrix(1, 0, 0, 1, -2.842170943040401e-14, 0)"/><path d="M 1192.900024 263.100006 H 1238.100025 V 271.200006 H 1192.900024 V 263.100006 Z" id="XMLID_58_" fill-rule="evenodd" clip-rule="evenodd" fill="#DBDCDC" transform="matrix(1, 0, 0, 1, -2.842170943040401e-14, 0)"/><path d="M 1192.900024 276.200012 H 1238.100025 V 284.300013 H 1192.900024 V 276.200012 Z" id="XMLID_57_" fill-rule="evenodd" clip-rule="evenodd" fill="#DBDCDC" transform="matrix(1, 0, 0, 1, -2.842170943040401e-14, 0)"/><path d="M 1192.900024 289.299988 H 1238.100025 V 297.399988 H 1192.900024 V 289.299988 Z" id="XMLID_56_" fill-rule="evenodd" clip-rule="evenodd" fill="#DBDCDC" transform="matrix(1, 0, 0, 1, -2.842170943040401e-14, 0)"/><path d="M 1192.900024 302.399994 H 1238.100025 V 310.499994 H 1192.900024 V 302.399994 Z" id="XMLID_55_" fill-rule="evenodd" clip-rule="evenodd" fill="#DBDCDC" transform="matrix(1, 0, 0, 1, -2.842170943040401e-14, 0)"/><path id="XMLID_54_" fill-rule="evenodd" clip-rule="evenodd" fill="#DBDCDC" d="M1204.9,185.1c2.5,0,4.6,2,4.6,4.6&#10;&#9;&#9;c0,2.5-2,4.6-4.6,4.6c-2.5,0-4.6-2-4.6-4.6C1200.3,187.1,1202.4,185.1,1204.9,185.1" transform="matrix(1, 0, 0, 1, -2.842170943040401e-14, 0)"/><path id="XMLID_53_" fill-rule="evenodd" clip-rule="evenodd" fill="#DBDCDC" d="M1218.6,185.1c2.5,0,4.6,2,4.6,4.6&#10;&#9;&#9;c0,2.5-2,4.6-4.6,4.6s-4.6-2-4.6-4.6C1214,187.1,1216.1,185.1,1218.6,185.1" transform="matrix(1, 0, 0, 1, -2.842170943040401e-14, 0)"/><path id="XMLID_52_" fill-rule="evenodd" clip-rule="evenodd" fill="#FF6239" d="M1232.3,185.1c2.5,0,4.6,2,4.6,4.6&#10;&#9;&#9;c0,2.5-2,4.6-4.6,4.6c-2.5,0-4.6-2-4.6-4.6C1227.8,187.1,1229.8,185.1,1232.3,185.1" transform="matrix(1, 0, 0, 1, -2.842170943040401e-14, 0)"/><path d="M 333.899994 278.799988 L 399.600006 278.799988 L 399.600006 370.299988" id="XMLID_51_" fill="none" stroke="#FFFFFF" stroke-width="2.8346" stroke-miterlimit="22.9256" stroke-dasharray="5.67,2.83" transform="matrix(1, 0, 0, 1, -2.842170943040401e-14, 0)"/><path d="M 543.5 497.5 L 609.099976 497.5 L 609.099976 406.100006" id="XMLID_50_" fill="none" stroke="#FFFFFF" stroke-width="2.8346" stroke-miterlimit="22.9256" stroke-dasharray="5.67,2.83" transform="matrix(1, 0, 0, 1, -2.842170943040401e-14, 0)"/><path d="M 836.299988 269.600006 L 927.900024 269.600006 L 927.900024 361" id="XMLID_49_" fill="none" stroke="#FFFFFF" stroke-width="2.8346" stroke-miterlimit="22.9256" stroke-dasharray="5.67,2.83" transform="matrix(1, 0, 0, 1, -2.842170943040401e-14, 0)"/><path d="M 1149.699951 455.5 L 1195.5 455.5 L 1195.5 337.399994" id="XMLID_48_" fill="none" stroke="#FFFFFF" stroke-width="2.8346" stroke-miterlimit="22.9256" stroke-dasharray="5.67,2.83" transform="matrix(1, 0, 0, 1, -2.842170943040401e-14, 0)"/><path id="XMLID_47_" fill-rule="evenodd" clip-rule="evenodd" fill="#FF6239" d="M664.5,580.5h73.2c44.9,0,81.6,36.7,81.6,81.6&#10;&#9;&#9;v190.4H585.7V659.3C585.7,616,621.2,580.5,664.5,580.5" transform="matrix(1, 0, 0, 1, -2.842170943040401e-14, 0)"/><path id="XMLID_46_" fill-rule="evenodd" clip-rule="evenodd" fill="#EC5B37" d="M571.2,852.5h262.5c17.5,0,31.9,14.3,31.9,31.9v0&#10;&#9;&#9;c0,17.5-14.3,31.9-31.9,31.9H571.2c-17.5,0-31.9-14.3-31.9-31.9v0C539.4,866.8,553.7,852.5,571.2,852.5" transform="matrix(1, 0, 0, 1, -2.842170943040401e-14, 0)"/><path d="M 597.0999755859375 916.2000122070312 L 619 916.2000122070312 L 555 1145.5 L 546.7999877929688 1145.5 Z" id="XMLID_45_" fill-rule="evenodd" clip-rule="evenodd" fill="#B2C9E8" transform="matrix(1, 0, 0, 1, -2.842170943040401e-14, 0)"/><path d="M 807.7999877929688 916.2000122070312 L 785.9000244140625 916.2000122070312 L 850 1145.5 L 858.2000122070312 1145.5 Z" id="XMLID_44_" fill-rule="evenodd" clip-rule="evenodd" fill="#B2C9E8" transform="matrix(1, 0, 0, 1, -2.842170943040401e-14, 0)"/><path id="XMLID_43_" fill-rule="evenodd" clip-rule="evenodd" fill="#4A4587" d="M698.6,548.8c-1.7,0-3.3,0.1-5,0.4l-54.4,8.2&#10;&#9;&#9;c-1.2,0.2-2.4,0.5-3.6,0.8c-17.3,2.9-48.4,19.2-53,40l-25,111.9h44.7l17.1-67.8V785l79.3,0l79.3,0V642.3l17.1,67.8l32.1,17.1&#10;&#9;&#9;l12.5-17.1l-25-111.9c-4.6-20.8-35.7-37.1-53-40c-1.2-0.3-2.4-0.6-3.6-0.8l-54.4-8.2C701.9,549,700.3,548.8,698.6,548.8" transform="matrix(1, 0, 0, 1, -2.842170943040401e-14, 0)"/><path id="XMLID_42_" fill-rule="evenodd" clip-rule="evenodd" fill="#E8E5EC" d="M698.6,548.8c-1.7,0-3.3,0.1-5,0.4l-24.3,3.7&#10;&#9;&#9;v220.8h58.6V552.9l-24.3-3.7C701.9,549,700.3,548.8,698.6,548.8" transform="matrix(1, 0, 0, 1, -2.842170943040401e-14, 0)"/><path id="XMLID_41_" fill-rule="evenodd" clip-rule="evenodd" fill="#832C44" d="M732.5,378.4c0,18.7-15.2,33.9-33.9,33.9&#10;&#9;&#9;c-18.7,0-33.9-15.2-33.9-33.9c0-18.7,15.2-33.9,33.9-33.9C717.3,344.4,732.5,359.6,732.5,378.4" transform="matrix(1, 0, 0, 1, -2.842170943040401e-14, 0)"/><path id="XMLID_40_" fill-rule="evenodd" clip-rule="evenodd" fill="#FFA982" d="M679.3,482c0,25,0,50,0,75&#10;&#9;&#9;c0,28.7,38.5,28.7,38.5,0c0-25,0-50,0-75C717.9,453.3,679.3,453.3,679.3,482" transform="matrix(1, 0, 0, 1, -2.842170943040401e-14, 0)"/><path id="XMLID_39_" fill-rule="evenodd" clip-rule="evenodd" fill="#EA876B" d="M679.3,458.7c0,25,0,50,0,75&#10;&#9;&#9;c0,28.7,38.5,28.7,38.5,0c0-25,0-50,0-75C717.9,429.9,679.3,429.9,679.3,458.7" transform="matrix(1, 0, 0, 1, -2.842170943040401e-14, 0)"/><path id="XMLID_38_" fill-rule="evenodd" clip-rule="evenodd" fill="#FFA982" d="M758,462.5c0,43-26.6,80.8-59.4,80.8&#10;&#9;&#9;c-32.8,0-59.4-37.8-59.4-80.8c0-43,26.6-77.8,59.4-77.8C731.4,384.7,758,419.5,758,462.5" transform="matrix(1, 0, 0, 1, -2.842170943040401e-14, 0)"/><path id="XMLID_37_" fill-rule="evenodd" clip-rule="evenodd" fill="#FFA982" d="M743.3,465c-1.7,7.9,3.5,15.7,11.5,17.4&#10;&#9;&#9;c8,1.7,15.9-3.3,17.6-11.2c1.7-7.9-3.5-15.7-11.5-17.4C752.8,452.1,745,457.1,743.3,465" transform="matrix(1, 0, 0, 1, -2.842170943040401e-14, 0)"/><path id="XMLID_36_" fill-rule="evenodd" clip-rule="evenodd" fill="#A3434C" d="M698.6,374.5c-54.2,0-68.7,37.6-68.7,84&#10;&#9;&#9;c38.3,0,51.3-52.7,51.3-52.7c0,0,3.1,21.4,19.8,37.3c14.2,13.5,39.7,22.7,66.3,15.4C767.3,412.1,752.8,374.5,698.6,374.5" transform="matrix(1, 0, 0, 1, -2.842170943040401e-14, 0)"/><path id="XMLID_35_" fill-rule="evenodd" clip-rule="evenodd" fill="#FFA982" d="M653.8,466.8c0.7,8.1-5.4,15.2-13.6,15.9&#10;&#9;&#9;c-8.2,0.7-15.4-5.3-16.1-13.3c-0.7-8.1,5.4-15.2,13.6-15.9C645.9,452.8,653.1,458.8,653.8,466.8" transform="matrix(1, 0, 0, 1, -2.842170943040401e-14, 0)"/><path id="XMLID_34_" fill-rule="evenodd" clip-rule="evenodd" fill="#EA876B" d="M680.1,511.8c10.7,8,26,8,36.7,0&#10;&#9;&#9;c3-2.2,0.1-7.3-2.9-5c-9.2,6.9-21.5,6.9-30.8,0C680,504.5,677.1,509.6,680.1,511.8" transform="matrix(1, 0, 0, 1, -2.842170943040401e-14, 0)"/><path id="XMLID_33_" fill-rule="evenodd" clip-rule="evenodd" fill="#832C44" d="M721.1,470.7c0,3.5,2.9,6.4,6.4,6.4&#10;&#9;&#9;c3.5,0,6.4-2.9,6.4-6.4c0-3.5-2.9-6.4-6.4-6.4C724,464.3,721.1,467.2,721.1,470.7" transform="matrix(1, 0, 0, 1, -2.842170943040401e-14, 0)"/><path id="XMLID_32_" fill-rule="evenodd" clip-rule="evenodd" fill="#832C44" d="M741.3,447c-8.1-4.3-17.2-4.9-25.8-1.6&#10;&#9;&#9;c-2.2,0.9-1.2,4.5,1,3.6c7.7-3,15.6-2.7,22.9,1.2C741.6,451.3,743.5,448.1,741.3,447" transform="matrix(1, 0, 0, 1, -2.842170943040401e-14, 0)"/><path id="XMLID_31_" fill-rule="evenodd" clip-rule="evenodd" fill="#832C44" d="M676.1,470.7c0,3.5-2.9,6.4-6.4,6.4&#10;&#9;&#9;c-3.5,0-6.4-2.9-6.4-6.4c0-3.5,2.9-6.4,6.4-6.4C673.2,464.3,676.1,467.2,676.1,470.7" transform="matrix(1, 0, 0, 1, -2.842170943040401e-14, 0)"/><path id="XMLID_30_" fill-rule="evenodd" clip-rule="evenodd" fill="#832C44" d="M657.7,450.2c7.3-3.9,15.2-4.2,22.9-1.2&#10;&#9;&#9;c2.2,0.9,3.2-2.7,1-3.6c-8.6-3.4-17.6-2.7-25.8,1.6C653.7,448.1,655.6,451.3,657.7,450.2" transform="matrix(1, 0, 0, 1, -2.842170943040401e-14, 0)"/><path id="XMLID_29_" fill-rule="evenodd" clip-rule="evenodd" fill="#EA876B" d="M706,487.9c-0.6,5.5-14.7,5.4-15.3,0&#10;&#9;&#9;c-0.2-2.1-3.5-2.1-3.3,0c1.1,9.8,20.7,9.8,21.8,0C709.5,485.9,706.2,485.9,706,487.9" transform="matrix(1, 0, 0, 1, -2.842170943040401e-14, 0)"/><path d="M 668.5 727.2000122070312 L 319 727.2000122070312 L 166.6999969482422 807.2000122070312 L 668.5 807.2000122070312 L 1238.199951171875 807.2000122070312 L 1085.9000244140625 727.2000122070312 Z" id="XMLID_28_" fill-rule="evenodd" clip-rule="evenodd" fill="#BC6E5D" transform="matrix(1, 0, 0, 1, -2.842170943040401e-14, 0)"/><path d="M 166.699997 807.200012 H 1238.199997 V 842.300011 H 166.699997 V 807.200012 Z" id="XMLID_27_" fill-rule="evenodd" clip-rule="evenodd" fill="#A46051" transform="matrix(1, 0, 0, 1, -2.842170943040401e-14, 0)"/><path d="M 265.899994 842.200012 H 312.999992 V 1207 H 265.899994 V 842.200012 Z" id="XMLID_26_" fill-rule="evenodd" clip-rule="evenodd" fill="#78463C" transform="matrix(1, 0, 0, 1, -2.842170943040401e-14, 0)"/><path d="M 1092 842.200012 H 1139.099998 V 1207 H 1092 V 842.200012 Z" id="XMLID_25_" fill-rule="evenodd" clip-rule="evenodd" fill="#78463C" transform="matrix(1, 0, 0, 1, -2.842170943040401e-14, 0)"/><path d="M 197.399994 842.200012 H 244.499992 V 1281.5 H 197.399994 V 842.200012 Z" id="XMLID_24_" fill-rule="evenodd" clip-rule="evenodd" fill="#A46051" transform="matrix(1, 0, 0, 1, -2.842170943040401e-14, 0)"/><path d="M 197.399994 842.200012 H 244.499992 V 868.500011 H 197.399994 V 842.200012 Z" id="XMLID_23_" fill-rule="evenodd" clip-rule="evenodd" fill="#8E5347" transform="matrix(1, 0, 0, 1, -2.842170943040401e-14, 0)"/><path d="M 1160.400024 842.200012 H 1207.500023 V 1281.5 H 1160.400024 V 842.200012 Z" id="XMLID_22_" fill-rule="evenodd" clip-rule="evenodd" fill="#A46051" transform="matrix(1, 0, 0, 1, -2.842170943040401e-14, 0)"/><path d="M 1160.400024 842.200012 H 1207.500023 V 868.500011 H 1160.400024 V 842.200012 Z" id="XMLID_21_" fill-rule="evenodd" clip-rule="evenodd" fill="#8E5347" transform="matrix(1, 0, 0, 1, -2.842170943040401e-14, 0)"/><path id="XMLID_20_" fill-rule="evenodd" clip-rule="evenodd" fill="#27275B" d="M611.1,827.5h164.6c0,16-11.6,41.5-31,41.5H643.4&#10;&#9;&#9;C623.9,869,611.1,843.6,611.1,827.5" transform="matrix(1, 0, 0, 1, -2.842170943040401e-14, 0)"/><path id="XMLID_19_" fill-rule="evenodd" clip-rule="evenodd" fill="#4A4587" d="M625.5,827.5H763c-1.9,12.6-11.2,28.6-25.7,28.6&#10;&#9;&#9;h-85C637.7,856.1,627.6,840.1,625.5,827.5" transform="matrix(1, 0, 0, 1, -2.842170943040401e-14, 0)"/><path id="XMLID_18_" fill-rule="evenodd" clip-rule="evenodd" fill="#4A4587" d="M705.7,1118.8l-6.5-67.9c-0.2-2-1.7-5-3.2-5.7&#10;&#9;&#9;c-12.7-5.5-25.9-5.7-39.4,0c-1.8,0.7-3,3.8-3.2,6.1l-6.4,67.5C643.9,1149.7,708.6,1149.7,705.7,1118.8" transform="matrix(1, 0, 0, 1, -2.842170943040401e-14, 0)"/><path id="XMLID_17_" fill-rule="evenodd" clip-rule="evenodd" fill="#FFA982" d="M664.9,827.5h34.3h45l54.4,146.6&#10;&#9;&#9;c8.4,22.6,76.4,51.9,64.9,69.6c-17,26-58.8,9.4-90.7-10.2c-12.9-7.9-14.5-23.8-6-41.4c-15.7-37.8-42.4-54.1-60.3-88.1l0,0&#10;&#9;&#9;c1.1,59.5-10.1,97.6-11,153.7c3.9,14.4,5.1,27.7,3.1,37.8c-12.9-12.4-27.7-12-41.6,0c-2.3-9.7-1.6-22.6,2.5-37.8&#10;&#9;&#9;C652.7,1014.3,630,874.1,664.9,827.5" transform="matrix(1, 0, 0, 1, -2.842170943040401e-14, 0)"/><path id="XMLID_16_" fill-rule="evenodd" clip-rule="evenodd" fill="#EA876B" d="M664.9,827.5h34.3h45l30.8,83.1&#10;&#9;&#9;c-16.3,4.7-31.1,13.8-44.4,27.7c-8.6-10.3-17.1-21-24.2-34.5l0,0c0.2,13.4-0.1,25.8-0.9,37.5c-19.5-6.7-39.2-6.8-59.1,0.5&#10;&#9;&#9;C644.5,896.2,647.7,850.5,664.9,827.5" transform="matrix(1, 0, 0, 1, -2.842170943040401e-14, 0)"/><path id="XMLID_15_" fill-rule="evenodd" clip-rule="evenodd" fill="#EA876B" d="M761.7,1015.5c-0.7-7,1-15,5.1-23.5&#10;&#9;&#9;c-15.7-37.8-42.4-54.1-60.3-88.1c25.9,23.1,53.1,44.8,69.6,76.3c5.9,11.3,4.8,24.3,9.7,33.9L761.7,1015.5z" transform="matrix(1, 0, 0, 1, -2.842170943040401e-14, 0)"/><path id="XMLID_14_" fill-rule="evenodd" clip-rule="evenodd" fill="#4A4587" d="M838.6,1010.9c16.5,12.3,30.6,24,24.8,32.8&#10;&#9;&#9;c-17,26-58.8,9.4-90.7-10.2c-12.9-7.9-14.5-23.8-6-41.4c8.8,25.9,83.6,63.6,78.7,29C845.1,1018.3,841.6,1013.1,838.6,1010.9" transform="matrix(1, 0, 0, 1, -2.842170943040401e-14, 0)"/><path d="M 561.2000122070312 693.7000122070312 L 585.7000122070312 693.9000244140625 L 602.2000122070312 710.0999755859375 L 591.5999755859375 727.2000122070312 L 539.2000122070312 727.2000122070312 Z" id="XMLID_13_" fill-rule="evenodd" clip-rule="evenodd" fill="#4A4587" transform="matrix(1, 0, 0, 1, -2.842170943040401e-14, 0)"/><path d="M 669.2999877929688 552.9000244140625 L 649.9000244140625 573.9000244140625 L 663.7999877929688 584.4000244140625 L 645.5 602.2000122070312 L 669.2999877929688 686.9000244140625 Z" id="XMLID_12_" fill-rule="evenodd" clip-rule="evenodd" fill="#27275B" transform="matrix(1, 0, 0, 1, -2.842170943040401e-14, 0)"/><path d="M 727.9000244140625 552.9000244140625 L 747.2999877929688 573.9000244140625 L 733.4000244140625 584.4000244140625 L 751.7000122070312 602.2000122070312 L 727.9000244140625 686.9000244140625 Z" id="XMLID_11_" fill-rule="evenodd" clip-rule="evenodd" fill="#27275B" transform="matrix(1, 0, 0, 1, -2.842170943040401e-14, 0)"/><path id="XMLID_10_" fill-rule="evenodd" clip-rule="evenodd" fill="#DBDCDC" d="M593.4,744.6l-72.6,28.8c-2.4,0.9-4.6,2.1-4.6,4.6&#10;&#9;&#9;s2.3,5.5,4.6,4.6l72.6-28.8c2.4-0.9,4.6-2.1,4.6-4.6C598,746.7,595.8,743.7,593.4,744.6" transform="matrix(1, 0, 0, 1, -2.842170943040401e-14, 0)"/><path d="M 594.4000244140625 744.5 L 517.5 775.2999877929688 L 515.7999877929688 770.7999877929688 L 507.79998779296875 750.4000244140625 L 504.79998779296875 742.5999755859375 L 526 735.7000122070312 Z" id="XMLID_135_" fill-rule="evenodd" clip-rule="evenodd" fill="#FFF3F1" transform="matrix(1, 0, 0, 1, -2.842170943040401e-14, 0)"/><path d="M 552.4000244140625 756.0999755859375 L 515.7999877929688 770.7999877929688 L 507.79998779296875 750.4000244140625 Z" id="XMLID_133_" fill-rule="evenodd" clip-rule="evenodd" fill="#4A4587" transform="matrix(1, 0, 0, 1, -2.842170943040401e-14, 0)"/><path id="XMLID_8_" fill-rule="evenodd" clip-rule="evenodd" fill="#DBDCDC" d="M500,635.8L352.4,621c-7.8-0.8-23.9,8.7-22.3,20.4&#10;&#9;&#9;l14.7,108.5c1.5,11.4,12.1,19.9,21.9,20.7L516.2,783c7.8,0.6,15.4-6.5,14.3-14.3l-16.2-118.6C513.3,642.3,507.9,636.6,500,635.8" transform="matrix(1, 0, 0, 1, -2.842170943040401e-14, 0)"/><path id="XMLID_7_" fill-rule="evenodd" clip-rule="evenodd" fill="#FFF3F1" d="M494.9,635.3L352.4,621&#10;&#9;&#9;c-7.8-0.8-23.9,8.7-22.3,20.4l14.7,108.5c1.5,11.4,12.1,19.9,21.9,20.7L515.4,783c5-2.4,8.5-7.6,7.8-13.2l-16.5-120.4&#10;&#9;&#9;C505.8,642.3,501.4,637,494.9,635.3" transform="matrix(1, 0, 0, 1, -2.842170943040401e-14, 0)"/><path id="XMLID_6_" fill-rule="evenodd" clip-rule="evenodd" fill="#DBDCDC" d="M811.5,744.6l72.6,28.8c2.4,0.9,4.6,2.1,4.6,4.6&#10;&#9;&#9;s-2.3,5.5-4.6,4.6l-72.6-28.8c-2.4-0.9-4.6-2.1-4.6-4.6C806.9,746.7,809.2,743.7,811.5,744.6" transform="matrix(1, 0, 0, 1, -2.842170943040401e-14, 0)"/><path d="M 900.2000122070312 742.5999755859375 L 895.7999877929688 753.7000122070312 L 888.5 772.5 L 887.4000244140625 775.2999877929688 L 810.5 744.5 L 878.9000244140625 735.7000122070312 Z" id="XMLID_136_" fill-rule="evenodd" clip-rule="evenodd" fill="#FFF3F1" transform="matrix(1, 0, 0, 1, -2.842170943040401e-14, 0)"/><path d="M 895.7999877929688 753.7000122070312 L 888.5 772.5 L 854.7000122070312 759 Z" id="XMLID_132_" fill-rule="evenodd" clip-rule="evenodd" fill="#27275B" transform="matrix(1, 0, 0, 1, -2.842170943040401e-14, 0)"/><path id="XMLID_4_" fill-rule="evenodd" clip-rule="evenodd" fill="#DBDCDC" d="M904.9,635.8l147.6-14.8&#10;&#9;&#9;c7.8-0.8,23.9,8.7,22.3,20.4l-14.7,108.5c-1.5,11.4-12.1,19.9-21.9,20.7L888.7,783c-7.8,0.6-15.4-6.5-14.3-14.3l16.2-118.6&#10;&#9;&#9;C891.7,642.3,897.1,636.6,904.9,635.8" transform="matrix(1, 0, 0, 1, -2.842170943040401e-14, 0)"/><path id="XMLID_3_" fill-rule="evenodd" clip-rule="evenodd" fill="#FFF3F1" d="M910,635.3l142.5-14.3c7.8-0.8,23.9,8.7,22.3,20.4&#10;&#9;&#9;l-14.7,108.5c-1.5,11.4-12.1,19.9-21.9,20.7L889.5,783c-5-2.4-8.5-7.6-7.8-13.2l16.5-120.4C899.2,642.3,903.5,637,910,635.3" transform="matrix(1, 0, 0, 1, -2.842170943040401e-14, 0)"/><path id="XMLID_2_" fill-rule="evenodd" clip-rule="evenodd" fill="#FFF3F1" d="M574.2,629.5h248.7c8,0,15.6,6.6,14.5,14.5&#10;&#9;&#9;l-16.7,123.5c-1.1,7.9-6.5,14.5-14.5,14.5h-217c-8,0-13.6-6.6-14.5-14.5l-15-123.5C558.7,636.1,566.2,629.5,574.2,629.5" transform="matrix(1, 0, 0, 1, -2.842170943040401e-14, 0)"/>
<path d="M 104.86713409423828 521.7622680664062 L 100.83916473388672 519.748291015625" style="fill-opacity: 1; stroke: rgb(0, 0, 0); stroke-opacity: 1; stroke-width: 10; paint-order: fill;"/></svg>